<svg aria-hidden="true" style="position: absolute; width: 0; height: 0; overflow: hidden;" version="1.1" xmlns="http://www.w3.org/2000/svg" xmlns:xlink="http://www.w3.org/1999/xlink">
<defs>
<symbol id="alarm-icon" viewBox="0 0 32 32">
<title>alarm-icon</title>
<path d="M30.74 10.003c-1.623-3.715-4.528-6.62-8.142-8.204l-0.101-0.039c1-0.787 2.258-1.26 3.629-1.26 3.244 0 5.874 2.63 5.874 5.874v0c0 0.001 0 0.002 0 0.003 0 1.375-0.475 2.639-1.269 3.637l0.009-0.012zM30.5 16.5c0 3.852-1.512 7.343-3.963 9.94l2.029 2.028c0.268 0.268 0.434 0.639 0.434 1.049 0 0.819-0.664 1.483-1.483 1.483-0.41 0-0.781-0.166-1.049-0.435l-2.178-2.178c-2.307 1.635-5.179 2.613-8.28 2.613-0.003 0-0.007 0-0.010 0h0.001c-3.079 0-5.928-0.966-8.276-2.603l-2.163 2.163c-0.271 0.272-0.647 0.44-1.061 0.44-0.829 0-1.5-0.672-1.5-1.5 0-0.414 0.168-0.789 0.439-1.061l2.012-2.012c-2.443-2.595-3.951-6.082-3.951-9.927 0-8.008 6.492-14.5 14.5-14.5s14.5 6.492 14.5 14.5zM16 5c-6.351 0-11.5 5.148-11.5 11.5 0 6.351 5.149 11.5 11.5 11.5s11.5-5.149 11.5-11.5c0-6.352-5.149-11.5-11.5-11.5zM22 18h-6c-0.828 0-1.5-0.672-1.5-1.5v0-8c0-0.828 0.672-1.5 1.5-1.5s1.5 0.672 1.5 1.5v0 6.499h4.5c0.829 0 1.5 0.672 1.5 1.5s-0.672 1.5-1.5 1.5v0zM1.287 10.205c-0.802-1.007-1.287-2.297-1.287-3.701 0-0.002 0-0.003 0-0.005v0c0-3.314 2.686-6 6-6v0c1.4 0 2.685 0.483 3.706 1.287-3.795 1.658-6.761 4.624-8.379 8.315l-0.040 0.103z"></path>
</symbol>
<symbol id="book-icon" viewBox="0 0 32 32">
<title>book-icon</title>
<path d="M31.065 25.889l-14.471 5.988c-0.175 0.078-0.379 0.124-0.594 0.124s-0.419-0.046-0.604-0.127l0.009 0.004-14.471-5.988c-0.553-0.229-0.935-0.764-0.935-1.389v-23c0-0.828 0.672-1.5 1.5-1.5 0.207 0 0.404 0.042 0.583 0.117l-0.010-0.004h0.001l0.002 0.001 0.013 0.005 13.911 5.756 13.927-5.762c0.169-0.072 0.366-0.114 0.573-0.114 0.828 0 1.5 0.671 1.5 1.5v0 23c-0 0.625-0.382 1.16-0.925 1.385l-0.010 0.004zM14.5 8.503l-11.5-4.759v19.753l11.5 4.759v-19.753zM29 3.744l-11.5 4.759v19.753l11.5-4.759v-19.753zM19.879 10.634l5.5-2.5c0.182-0.085 0.396-0.135 0.621-0.135 0.828 0 1.5 0.672 1.5 1.5 0 0.603-0.356 1.123-0.87 1.362l-0.009 0.004-5.5 2.5c-0.182 0.085-0.396 0.135-0.621 0.135-0.828 0-1.5-0.672-1.5-1.5 0-0.603 0.356-1.123 0.87-1.362l0.009-0.004zM19.879 16.134l5.5-2.5c0.182-0.085 0.396-0.135 0.621-0.135 0.828 0 1.5 0.672 1.5 1.5 0 0.603-0.356 1.123-0.87 1.362l-0.009 0.004-5.5 2.5c-0.182 0.085-0.396 0.135-0.621 0.135-0.828 0-1.5-0.672-1.5-1.5 0-0.603 0.356-1.123 0.87-1.362l0.009-0.004zM19.879 21.634l5.5-2.5c0.182-0.085 0.396-0.135 0.621-0.135 0.828 0 1.5 0.672 1.5 1.5 0 0.603-0.356 1.123-0.87 1.362l-0.009 0.004-5.5 2.5c-0.182 0.085-0.396 0.135-0.621 0.135-0.828 0-1.5-0.672-1.5-1.5 0-0.603 0.356-1.123 0.87-1.362l0.009-0.004zM6 8c0.221 0 0.431 0.048 0.621 0.134l5.5 2.5c0.497 0.252 0.832 0.758 0.832 1.344 0 0.829-0.672 1.501-1.501 1.501-0.207 0-0.404-0.042-0.583-0.117l0.010 0.004-5.5-2.5c-0.522-0.242-0.878-0.762-0.878-1.365 0-0.828 0.671-1.499 1.499-1.5h0zM6 13.5c0.221 0 0.431 0.048 0.621 0.134l5.5 2.5c0.497 0.252 0.832 0.759 0.832 1.344 0 0.829-0.672 1.501-1.501 1.501-0.207 0-0.404-0.042-0.583-0.117l0.010 0.004-5.5-2.5c-0.522-0.242-0.878-0.762-0.878-1.365 0-0.828 0.671-1.499 1.499-1.5h0zM6 19c0.221 0 0.431 0.048 0.621 0.134l5.5 2.5c0.497 0.252 0.832 0.759 0.832 1.344 0 0.829-0.672 1.501-1.501 1.501-0.207 0-0.404-0.042-0.583-0.117l0.010 0.004-5.5-2.5c-0.522-0.242-0.878-0.762-0.878-1.365 0-0.828 0.671-1.499 1.499-1.5h0z"></path>
</symbol>
<symbol id="comp-icon" viewBox="0 0 32 32">
<title>comp-icon</title>
<path d="M30 25h-9.5v2.499l2 2.001v0.5h-13v-0.5l2-2.001v-2.499h-9.5c-0.828 0-1.5-0.672-1.5-1.5 0-0 0-0.001 0-0.001v0-19.999c0-0.828 0.672-1.5 1.5-1.5v0h28c0.828 0 1.5 0.672 1.5 1.5v0 19.999c0 0 0 0.001 0 0.001 0 0.828-0.672 1.5-1.5 1.5v0zM29.5 4h-27v17h27v-17zM13 11c0.414 0 0.789 0.168 1.061 0.439l0.939 0.939 2.939-2.939c0.272-0.272 0.647-0.439 1.061-0.439 0.829 0 1.5 0.672 1.5 1.5 0 0.414-0.168 0.789-0.439 1.061l-4 4c-0.271 0.272-0.647 0.44-1.061 0.44s-0.79-0.168-1.061-0.44l-2-2.001c-0.271-0.271-0.439-0.646-0.439-1.060 0-0.828 0.671-1.5 1.5-1.5h0z"></path>
</symbol>
<symbol id="graph-icon" viewBox="0 0 32 32">
<title>graph-icon</title>
<path d="M30.5 32h-29c-0.828 0-1.5-0.672-1.5-1.5v0-29.001c0.001-0.828 0.672-1.499 1.5-1.499h29c0.828 0 1.499 0.671 1.5 1.499v29.001c0 0.828-0.672 1.5-1.5 1.5v0zM29 3h-26v26h26v-26zM5.215 16.239v-0.002l4-2.498c0.223-0.14 0.495-0.223 0.785-0.223 0.313 0 0.604 0.096 0.845 0.261l-0.005-0.003 0.006-0.008 6.631 4.42 7.638-5.391c0.237-0.165 0.532-0.264 0.849-0.264 0.828 0 1.5 0.672 1.5 1.5 0 0.483-0.228 0.913-0.583 1.187l-0.003 0.003h0.001l-8.501 6c-0.246 0.179-0.55 0.284-0.878 0.284-0.321 0-0.618-0.101-0.861-0.272l-6.657-4.438-3.135 1.96c-0.223 0.138-0.493 0.22-0.783 0.22-0.828 0-1.5-0.672-1.5-1.5 0-0.511 0.255-0.962 0.646-1.233l0.005-0.003z"></path>
</symbol>
<symbol id="home-icon" viewBox="0 0 32 32">
<title>home-icon</title>
<path d="M32 17c-0.001 0.828-0.672 1.499-1.5 1.499v0c-0.395-0-0.754-0.154-1.021-0.406l0.001 0.001-0.003 0.004-13.477-13.476-13.447 13.446c-0.273 0.278-0.652 0.451-1.072 0.451-0.828 0-1.5-0.672-1.5-1.5 0-0.434 0.184-0.825 0.479-1.099l0.001-0.001 14.458-14.459c0.273-0.283 0.656-0.46 1.081-0.46h0.001c0.026 0 0.052 0 0.079 0.002l0.012 0.001 0.068 0.005 0.004 0.001c0.367 0.040 0.694 0.212 0.933 0.468l0.001-0.001 5.902 5.902v-1.378c0-0.828 0.672-1.5 1.5-1.5s1.5 0.672 1.5 1.5v0 4.378l5.598 5.598-0.004 0.004c0.25 0.268 0.406 0.625 0.406 1.020zM29 19.5v10.5c0 0.828-0.672 1.5-1.5 1.5v0h-3v-12h-6v12h-14c-0.828 0-1.5-0.672-1.5-1.5v0-10.5l13-13 13 13zM13.5 19.5h-6v6h6v-6z"></path>
</symbol>
<symbol id="image-icon" viewBox="0 0 32 32">
<title>image-icon</title>
<path d="M30.5 32h-29c-0.828 0-1.5-0.672-1.5-1.5v0-29c0-0.828 0.672-1.5 1.5-1.5v0h29c0.828 0 1.5 0.672 1.5 1.5v0 29c0 0.828-0.672 1.5-1.5 1.5v0zM29 3h-26v26h26v-26zM6.5 4.5h5.5c0.828 0 1.5 0.672 1.5 1.5s-0.672 1.5-1.5 1.5v0h-4.5v4.5c0 0.828-0.672 1.5-1.5 1.5s-1.5-0.672-1.5-1.5v0-7.5h2zM4.5 20c0-0.828 0.672-1.5 1.5-1.5s1.5 0.672 1.5 1.5v0 4.499l4.5 0.001c0.828 0 1.5 0.672 1.5 1.5s-0.672 1.5-1.5 1.5v0h-7.5v-7.5zM20 4.5h7.5v7.5c0 0.828-0.672 1.5-1.5 1.5s-1.5-0.672-1.5-1.5v0-4.5h-4.5c-0.828 0-1.5-0.672-1.5-1.5s0.672-1.5 1.5-1.5v0zM20 24.5v-0.001h4.5v-4.499c0-0.828 0.672-1.5 1.5-1.5s1.5 0.672 1.5 1.5v0 7.5h-7.5c-0.828 0-1.5-0.672-1.5-1.5s0.672-1.5 1.5-1.5v0z"></path>
</symbol>
</defs>
</svg>
